{
    "asset" : {
        "generator" : "Khronos glTF Blender I/O v1.4.39",
        "version" : "2.0"
    },
    "scene" : 0,
    "scenes" : [
        {
            "name" : "Scene",
            "nodes" : [
                0
            ]
        }
    ],
    "nodes" : [
        {
            "mesh" : 0,
            "name" : "lowpoly.001"
        }
    ],
    "materials" : [
        {
            "doubleSided" : true,
            "name" : "TextureAtlas_0.001",
            "pbrMetallicRoughness" : {
                "baseColorTexture" : {
                    "index" : 0,
                    "texCoord" : 0
                },
                "metallicFactor" : 0,
                "roughnessFactor" : 0.8100000023841858
            }
        },
        {
            "doubleSided" : true,
            "name" : "TextureAtlas_1.001",
            "pbrMetallicRoughness" : {
                "baseColorTexture" : {
                    "index" : 1,
                    "texCoord" : 0
                },
                "metallicFactor" : 0,
                "roughnessFactor" : 0.8100000023841858
            }
        },
        {
            "doubleSided" : true,
            "name" : "TextureAtlas_2.001",
            "pbrMetallicRoughness" : {
                "baseColorTexture" : {
                    "index" : 2,
                    "texCoord" : 0
                },
                "metallicFactor" : 0,
                "roughnessFactor" : 0.8100000023841858
            }
        },
        {
            "doubleSided" : true,
            "name" : "TextureAtlas_3.001",
            "pbrMetallicRoughness" : {
                "baseColorTexture" : {
                    "index" : 3,
                    "texCoord" : 0
                },
                "metallicFactor" : 0,
                "roughnessFactor" : 0.8100000023841858
            }
        },
        {
            "doubleSided" : true,
            "name" : "TextureAtlas_4.001",
            "pbrMetallicRoughness" : {
                "baseColorTexture" : {
                    "index" : 4,
                    "texCoord" : 0
                },
                "metallicFactor" : 0,
                "roughnessFactor" : 0.8100000023841858
            }
        }
    ],
    "meshes" : [
        {
            "name" : "TexturedMesh.003",
            "primitives" : [
                {
                    "attributes" : {
                        "POSITION" : 0,
                        "NORMAL" : 1,
                        "TEXCOORD_0" : 2
                    },
                    "indices" : 3,
                    "material" : 0
                },
                {
                    "attributes" : {
                        "POSITION" : 4,
                        "NORMAL" : 5,
                        "TEXCOORD_0" : 6
                    },
                    "indices" : 7,
                    "material" : 1
                },
                {
                    "attributes" : {
                        "POSITION" : 8,
                        "NORMAL" : 9,
                        "TEXCOORD_0" : 10
                    },
                    "indices" : 11,
                    "material" : 2
                },
                {
                    "attributes" : {
                        "POSITION" : 12,
                        "NORMAL" : 13,
                        "TEXCOORD_0" : 14
                    },
                    "indices" : 15,
                    "material" : 3
                },
                {
                    "attributes" : {
                        "POSITION" : 16,
                        "NORMAL" : 17,
                        "TEXCOORD_0" : 18
                    },
                    "indices" : 19,
                    "material" : 4
                }
            ]
        }
    ],
    "textures" : [
        {
            "sampler" : 0,
            "source" : 0
        },
        {
            "sampler" : 0,
            "source" : 1
        },
        {
            "sampler" : 0,
            "source" : 2
        },
        {
            "sampler" : 0,
            "source" : 3
        },
        {
            "sampler" : 0,
            "source" : 4
        }
    ],
    "images" : [
        {
            "mimeType" : "image/jpeg",
            "name" : "texture_0",
            "uri" : "texture_0.jpg"
        },
        {
            "mimeType" : "image/jpeg",
            "name" : "texture_1",
            "uri" : "texture_1.jpg"
        },
        {
            "mimeType" : "image/jpeg",
            "name" : "texture_2",
            "uri" : "texture_2.jpg"
        },
        {
            "mimeType" : "image/jpeg",
            "name" : "texture_3",
            "uri" : "texture_3.jpg"
        },
        {
            "mimeType" : "image/jpeg",
            "name" : "texture_4",
            "uri" : "texture_4.jpg"
        }
    ],
    "accessors" : [
        {
            "bufferView" : 0,
            "componentType" : 5126,
            "count" : 14115,
            "max" : [
                0.9138981699943542,
                0.776551365852356,
                2.893953323364258
            ],
            "min" : [
                -1.052579641342163,
                -0.46847423911094666,
                -2.014291763305664
            ],
            "type" : "VEC3"
        },
        {
            "bufferView" : 1,
            "componentType" : 5126,
            "count" : 14115,
            "type" : "VEC3"
        },
        {
            "bufferView" : 2,
            "componentType" : 5126,
            "count" : 14115,
            "type" : "VEC2"
        },
        {
            "bufferView" : 3,
            "componentType" : 5123,
            "count" : 45561,
            "type" : "SCALAR"
        },
        {
            "bufferView" : 4,
            "componentType" : 5126,
            "count" : 13928,
            "max" : [
                0.91517573595047,
                0.7703916430473328,
                2.9461185932159424
            ],
            "min" : [
                -1.0527033805847168,
                -0.48097342252731323,
                -2.1232614517211914
            ],
            "type" : "VEC3"
        },
        {
            "bufferView" : 5,
            "componentType" : 5126,
            "count" : 13928,
            "type" : "VEC3"
        },
        {
            "bufferView" : 6,
            "componentType" : 5126,
            "count" : 13928,
            "type" : "VEC2"
        },
        {
            "bufferView" : 7,
            "componentType" : 5123,
            "count" : 56928,
            "type" : "SCALAR"
        },
        {
            "bufferView" : 8,
            "componentType" : 5126,
            "count" : 12347,
            "max" : [
                0.9108612537384033,
                0.7521567344665527,
                2.6732804775238037
            ],
            "min" : [
                -1.051411509513855,
                -0.44330865144729614,
                -2.1298203468322754
            ],
            "type" : "VEC3"
        },
        {
            "bufferView" : 9,
            "componentType" : 5126,
            "count" : 12347,
            "type" : "VEC3"
        },
        {
            "bufferView" : 10,
            "componentType" : 5126,
            "count" : 12347,
            "type" : "VEC2"
        },
        {
            "bufferView" : 11,
            "componentType" : 5123,
            "count" : 47829,
            "type" : "SCALAR"
        },
        {
            "bufferView" : 12,
            "componentType" : 5126,
            "count" : 18110,
            "max" : [
                0.9031400680541992,
                0.777831494808197,
                2.899611473083496
            ],
            "min" : [
                -1.052579641342163,
                -0.47374531626701355,
                -2.054917097091675
            ],
            "type" : "VEC3"
        },
        {
            "bufferView" : 13,
            "componentType" : 5126,
            "count" : 18110,
            "type" : "VEC3"
        },
        {
            "bufferView" : 14,
            "componentType" : 5126,
            "count" : 18110,
            "type" : "VEC2"
        },
        {
            "bufferView" : 15,
            "componentType" : 5123,
            "count" : 66510,
            "type" : "SCALAR"
        },
        {
            "bufferView" : 16,
            "componentType" : 5126,
            "count" : 19579,
            "max" : [
                0.9016298651695251,
                0.777831494808197,
                2.915159225463867
            ],
            "min" : [
                -1.0520641803741455,
                -0.4644539952278137,
                -2.0806753635406494
            ],
            "type" : "VEC3"
        },
        {
            "bufferView" : 17,
            "componentType" : 5126,
            "count" : 19579,
            "type" : "VEC3"
        },
        {
            "bufferView" : 18,
            "componentType" : 5126,
            "count" : 19579,
            "type" : "VEC2"
        },
        {
            "bufferView" : 19,
            "componentType" : 5123,
            "count" : 61407,
            "type" : "SCALAR"
        }
    ],
    "bufferViews" : [
        {
            "buffer" : 0,
            "byteLength" : 169380,
            "byteOffset" : 0
        },
        {
            "buffer" : 0,
            "byteLength" : 169380,
            "byteOffset" : 169380
        },
        {
            "buffer" : 0,
            "byteLength" : 112920,
            "byteOffset" : 338760
        },
        {
            "buffer" : 0,
            "byteLength" : 91122,
            "byteOffset" : 451680
        },
        {
            "buffer" : 0,
            "byteLength" : 167136,
            "byteOffset" : 542804
        },
        {
            "buffer" : 0,
            "byteLength" : 167136,
            "byteOffset" : 709940
        },
        {
            "buffer" : 0,
            "byteLength" : 111424,
            "byteOffset" : 877076
        },
        {
            "buffer" : 0,
            "byteLength" : 113856,
            "byteOffset" : 988500
        },
        {
            "buffer" : 0,
            "byteLength" : 148164,
            "byteOffset" : 1102356
        },
        {
            "buffer" : 0,
            "byteLength" : 148164,
            "byteOffset" : 1250520
        },
        {
            "buffer" : 0,
            "byteLength" : 98776,
            "byteOffset" : 1398684
        },
        {
            "buffer" : 0,
            "byteLength" : 95658,
            "byteOffset" : 1497460
        },
        {
            "buffer" : 0,
            "byteLength" : 217320,
            "byteOffset" : 1593120
        },
        {
            "buffer" : 0,
            "byteLength" : 217320,
            "byteOffset" : 1810440
        },
        {
            "buffer" : 0,
            "byteLength" : 144880,
            "byteOffset" : 2027760
        },
        {
            "buffer" : 0,
            "byteLength" : 133020,
            "byteOffset" : 2172640
        },
        {
            "buffer" : 0,
            "byteLength" : 234948,
            "byteOffset" : 2305660
        },
        {
            "buffer" : 0,
            "byteLength" : 234948,
            "byteOffset" : 2540608
        },
        {
            "buffer" : 0,
            "byteLength" : 156632,
            "byteOffset" : 2775556
        },
        {
            "buffer" : 0,
            "byteLength" : 122814,
            "byteOffset" : 2932188
        }
    ],
    "samplers" : [
        {
            "magFilter" : 9729,
            "minFilter" : 9986
        }
    ],
    "buffers" : [
        {
            "byteLength" : 3055004,
            "uri" : "gltf.bin"
        }
    ]
}
