{
  "accessors": [
    {
      "bufferView": 2,
      "componentType": 5126,
      "count": 65532,
      "max": [
        0.027280936017632484,
        0.034644700586795807,
        0.0072303866036236286
      ],
      "min": [
        -0.026879774406552315,
        -0.032282274216413498,
        -0.0060819364152848721
      ],
      "type": "VEC3"
    },
    {
      "bufferView": 2,
      "byteOffset": 786384,
      "componentType": 5126,
      "count": 65532,
      "max": [
        0.9999462366104126,
        0.99998116493225098,
        0.99999773502349854
      ],
      "min": [
        -0.9999852180480957,
        -0.99994266033172607,
        -1
      ],
      "type": "VEC3"
    },
    {
      "bufferView": 3,
      "componentType": 5126,
      "count": 65532,
      "max": [
        0.63967305421829224,
        0.57232660055160522,
        0.99998128414154053,
        1
      ],
      "min": [
        -1,
        -0.99999964237213135,
        -0.99999380111694336,
        1
      ],
      "type": "VEC4"
    },
    {
      "bufferView": 1,
      "componentType": 5126,
      "count": 65532,
      "max": [
        0.99238169193267822,
        0.5834120512008667
      ],
      "min": [
        0.007618349976837635,
        0.007618349976837635
      ],
      "type": "VEC2"
    },
    {
      "bufferView": 1,
      "byteOffset": 524256,
      "componentType": 5126,
      "count": 65532,
      "max": [
        0.99238169193267822,
        0.5834120512008667
      ],
      "min": [
        0.007618349976837635,
        0.007618349976837635
      ],
      "type": "VEC2"
    },
    {
      "bufferView": 0,
      "componentType": 5125,
      "count": 372921,
      "max": [
        65531
      ],
      "min": [
        0
      ],
      "type": "SCALAR"
    },
    {
      "bufferView": 2,
      "byteOffset": 1572768,
      "componentType": 5126,
      "count": 41164,
      "max": [
        0.027280936017632484,
        0.03468482568860054,
        0.0064469440840184689
      ],
      "min": [
        -0.026684314012527466,
        -0.032036047428846359,
        -0.00598172377794981
      ],
      "type": "VEC3"
    },
    {
      "bufferView": 2,
      "byteOffset": 2066736,
      "componentType": 5126,
      "count": 41164,
      "max": [
        0.99998700618743896,
        0.99988281726837158,
        0.99999570846557617
      ],
      "min": [
        -0.99975407123565674,
        -0.99994063377380371,
        -0.99999988079071045
      ],
      "type": "VEC3"
    },
    {
      "bufferView": 3,
      "byteOffset": 1048512,
      "componentType": 5126,
      "count": 41164,
      "max": [
        0.72999119758605957,
        0.86948168277740479,
        0.99998128414154053,
        1
      ],
      "min": [
        -0.9999997615814209,
        -1,
        -0.99996030330657959,
        1
      ],
      "type": "VEC4"
    },
    {
      "bufferView": 1,
      "byteOffset": 1048512,
      "componentType": 5126,
      "count": 41164,
      "max": [
        0.97402644157409668,
        0.69681417942047119
      ],
      "min": [
        0.007618349976837635,
        0.007618349976837635
      ],
      "type": "VEC2"
    },
    {
      "bufferView": 1,
      "byteOffset": 1377824,
      "componentType": 5126,
      "count": 41164,
      "max": [
        0.97402644157409668,
        0.69681417942047119
      ],
      "min": [
        0.007618349976837635,
        0.007618349976837635
      ],
      "type": "VEC2"
    },
    {
      "bufferView": 0,
      "byteOffset": 1491684,
      "componentType": 5125,
      "count": 223341,
      "max": [
        41163
      ],
      "min": [
        0
      ],
      "type": "SCALAR"
    }
  ],
  "asset": {
    "extras": {
      "author": "Polo Arqueológico de Viseu (https://sketchfab.com/poloarqueologicodeviseu)",
      "license": "COPYRIGHT TO Polo Arqueológico de Viseu",
      "source": "https://sketchfab.com/3d-models/placa-4ba667cc933d4bb1a63f67fabd5df9f6",
      "title": "Placa"
    },
    "generator": "Sketchfab-9.68.0",
    "version": "2.0"
  },
  "bufferViews": [
    {
      "buffer": 0,
      "byteLength": 2385048,
      "byteOffset": 0,
      "name": "floatBufferViews",
      "target": 34963
    },
    {
      "buffer": 0,
      "byteLength": 1707136,
      "byteOffset": 2385048,
      "byteStride": 8,
      "name": "floatBufferViews",
      "target": 34962
    },
    {
      "buffer": 0,
      "byteLength": 2560704,
      "byteOffset": 4092184,
      "byteStride": 12,
      "name": "floatBufferViews",
      "target": 34962
    },
    {
      "buffer": 0,
      "byteLength": 1707136,
      "byteOffset": 6652888,
      "byteStride": 16,
      "name": "floatBufferViews",
      "target": 34962
    }
  ],
  "buffers": [
    {
      "byteLength": 8360024,
      "uri": "scene.bin"
    }
  ],
  "images": [
    {
      "uri": "textures/placa_material_baseColor.png"
    },
    {
      "uri": "textures/placa_material_normal.png"
    }
  ],
  "materials": [
    {
      "doubleSided": true,
      "name": "placa_material",
      "normalTexture": {
        "index": 1,
        "scale": 1,
        "texCoord": 1
      },
      "pbrMetallicRoughness": {
        "baseColorFactor": [
          1,
          1,
          1,
          1
        ],
        "baseColorTexture": {
          "index": 0,
          "texCoord": 0
        },
        "metallicFactor": 0,
        "roughnessFactor": 0.81000000000000005
      }
    }
  ],
  "meshes": [
    {
      "primitives": [
        {
          "attributes": {
            "NORMAL": 1,
            "POSITION": 0,
            "TANGENT": 2,
            "TEXCOORD_0": 3,
            "TEXCOORD_1": 4
          },
          "indices": 5,
          "material": 0,
          "mode": 4
        }
      ]
    },
    {
      "primitives": [
        {
          "attributes": {
            "NORMAL": 7,
            "POSITION": 6,
            "TANGENT": 8,
            "TEXCOORD_0": 9,
            "TEXCOORD_1": 10
          },
          "indices": 11,
          "material": 0,
          "mode": 4
        }
      ]
    }
  ],
  "nodes": [
    {
      "children": [
        1
      ],
      "name": "RootNode (gltf orientation matrix)",
      "rotation": [
        -0.70710678118654746,
        -0,
        -0,
        0.70710678118654757
      ]
    },
    {
      "children": [
        2
      ],
      "matrix": [
        2.1076197624206543,
        0,
        0,
        0,
        0,
        2.1076197624206543,
        0,
        0,
        0,
        0,
        2.1076197624206543,
        0,
        0,
        -3.903127820947816e-18,
        0,
        1
      ],
      "name": "RootNode (model correction matrix)"
    },
    {
      "children": [
        3
      ],
      "name": "root"
    },
    {
      "children": [
        4
      ],
      "matrix": [
        1,
        0,
        0,
        0,
        0,
        2.2204460492503131e-16,
        1,
        0,
        0,
        -1,
        2.2204460492503131e-16,
        0,
        0,
        0,
        0,
        1
      ],
      "name": "GLTF_SceneRootNode"
    },
    {
      "children": [
        5,
        6
      ],
      "name": "placa-idolo_0"
    },
    {
      "mesh": 0,
      "name": ""
    },
    {
      "mesh": 1,
      "name": ""
    }
  ],
  "samplers": [
    {
      "magFilter": 9729,
      "minFilter": 9987,
      "wrapS": 10497,
      "wrapT": 10497
    }
  ],
  "scene": 0,
  "scenes": [
    {
      "name": "OSG_Scene",
      "nodes": [
        0
      ]
    }
  ],
  "textures": [
    {
      "sampler": 0,
      "source": 0
    },
    {
      "sampler": 0,
      "source": 1
    }
  ]
}

