{
    "asset" : {
        "generator" : "Khronos glTF Blender I/O v1.3.48",
        "version" : "2.0"
    },
    "scene" : 0,
    "scenes" : [
        {
            "name" : "Scene",
            "nodes" : [
                0
            ]
        }
    ],
    "nodes" : [
        {
            "mesh" : 0,
            "name" : "fixed_noholes.001low"
        }
    ],
    "materials" : [
        {
            "doubleSided" : true,
            "emissiveFactor" : [
                0,
                0,
                0
            ],
            "name" : "vasinho_material",
            "pbrMetallicRoughness" : {
                "baseColorTexture" : {
                    "index" : 0,
                    "texCoord" : 0
                },
                "metallicFactor" : 0,
                "roughnessFactor" : 0.7799999713897705
            }
        }
    ],
    "meshes" : [
        {
            "name" : "texturedMesh.012",
            "primitives" : [
                {
                    "attributes" : {
                        "POSITION" : 0,
                        "NORMAL" : 1,
                        "TEXCOORD_0" : 2
                    },
                    "indices" : 3,
                    "material" : 0
                }
            ]
        }
    ],
    "textures" : [
        {
            "source" : 0
        }
    ],
    "images" : [
        {
            "mimeType" : "image/jpeg",
            "name" : "vasinho_color",
            "uri" : "textures/vasinho_color.jpg"
        }
    ],
    "accessors" : [
        {
            "bufferView" : 0,
            "componentType" : 5126,
            "count" : 33351,
            "max" : [
                0.09773746877908707,
                0.0721966102719307,
                0.09679639339447021
            ],
            "min" : [
                -0.10517586767673492,
                -0.08595401793718338,
                -0.10287029296159744
            ],
            "type" : "VEC3"
        },
        {
            "bufferView" : 1,
            "componentType" : 5126,
            "count" : 33351,
            "type" : "VEC3"
        },
        {
            "bufferView" : 2,
            "componentType" : 5126,
            "count" : 33351,
            "type" : "VEC2"
        },
        {
            "bufferView" : 3,
            "componentType" : 5123,
            "count" : 181326,
            "type" : "SCALAR"
        }
    ],
    "bufferViews" : [
        {
            "buffer" : 0,
            "byteLength" : 400212,
            "byteOffset" : 0
        },
        {
            "buffer" : 0,
            "byteLength" : 400212,
            "byteOffset" : 400212
        },
        {
            "buffer" : 0,
            "byteLength" : 266808,
            "byteOffset" : 800424
        },
        {
            "buffer" : 0,
            "byteLength" : 362652,
            "byteOffset" : 1067232
        }
    ],
    "buffers" : [
        {
            "byteLength" : 1429884,
            "uri" : "gltf.bin"
        }
    ]
}
